<svg width="1103" height="574" viewBox="0 0 1103 574" fill="none" xmlns="http://www.w3.org/2000/svg">
<g clip-path="url(#clip0_12006_66)">
<path d="M1074.57 171.021H990.382V392.462H1074.57V171.021Z" fill="#FFF3C4"/>
<path d="M1083.35 5.34492C1085.68 7.70054 1091.09 18.6057 1093 22.2468C1132.43 97.3576 1047.25 173.849 977.626 127.712C958.669 115.15 957.403 103.462 966.052 82.7635C979.052 51.6622 1035.96 -5.48256 1072.19 0.430403C1074.07 0.735318 1082.28 4.26277 1083.35 5.3509V5.34492ZM975.444 106.075C987.583 118.283 1020.81 89.4836 1030.31 82.7336C1032.61 81.1074 1036.34 81.1313 1038.69 78.8475C1040.22 77.3587 1053.29 58.4241 1055.92 54.6396C1061.13 47.1363 1081.58 15.5745 1061.48 14.2293C1042.99 12.9917 1006.65 45.6356 995.019 59.584C988.837 66.9976 966.872 97.4533 975.444 106.075Z" fill="#FFF3C4"/>
<path d="M930.682 92.5986V167.949H838.84V395.541H753.121V167.949H661.273V92.5986H930.682Z" fill="#FFF3C4"/>
<path d="M85.7191 92.5985V211.007L91.0988 207.952L190.573 92.5925H292.366L183.702 220.962L296.961 395.541H195.935C175.516 358.772 149.497 324.723 128.406 288.079C124.952 286.052 118.758 293.765 116.297 296.312C105.799 307.163 96.8293 321.177 85.725 331.724V395.541H0V92.5985H85.7191Z" fill="#FFF3C4"/>
<path d="M455.161 99.2887C456.63 97.9017 460.398 95.558 462.277 94.8944C473.316 91.0022 517.209 91.3848 530.454 92.5387C538.306 93.2203 546.545 95.5221 551.473 102.176C582.765 182.537 615.412 262.58 644.766 343.693C649.807 357.63 662.231 378.782 644.986 390.704C635.819 397.041 598.773 396.874 587.033 395.547C553.215 391.72 571.12 350.736 538.116 347.807C518.648 346.079 480.919 346.073 461.456 347.807C432.59 350.377 442.803 382.113 424.577 392.259C416.6 396.701 378.359 396.832 368.509 395.176C352.798 392.533 345.712 378.238 349.76 363.232L449.984 107.157C451.19 104.867 453.402 100.963 455.167 99.2947L455.161 99.2887ZM498.276 200.246L477.453 259.429C478.636 290.154 522.221 288.175 520.574 257.869C520.223 251.447 505.677 211.258 502.188 203.982C501.373 202.29 500.767 199.672 498.276 200.252V200.246Z" fill="#FFF3C4"/>
<path d="M583.205 443.209V535.479H639.844V561.624L692.131 443.466L734.01 443.185L789.852 570.849H743.931L737.981 550.234C736.388 547.951 697.636 549.9 691.329 549.529C688.226 550.581 684.796 566.849 682.703 570.849H538.818V443.215H583.211L583.205 443.209ZM724.035 517.023L714.833 489.347C712.752 487.715 704.145 514.972 702.605 517.023H724.035Z" fill="#FFF3C4"/>
<path d="M878.638 497.036V443.215H921.498V570.849H885.528C881.92 570.849 846.259 520.652 838.84 515.486V570.849H795.981V443.215H831.951L878.638 497.036Z" fill="#FFF3C4"/>
<path d="M939.866 570.849V443.215H1018.7C1026.22 443.215 1046.12 452.225 1052.38 457.056C1096.85 491.38 1072.41 570.849 1015.64 570.849H939.866ZM984.26 535.479H1009.52C1016.64 535.479 1026.96 525.082 1028.99 518.135C1038.49 485.646 1011.85 473.761 984.26 477.043V535.479Z" fill="#FFF3C4"/>
<path d="M153.629 557.929C142.976 550.211 133.34 530.654 131.806 517.627C120.869 424.729 256.67 414.075 273.296 490.818C288.776 562.282 206.879 596.51 153.629 557.929ZM184.243 483.751C169.619 498.477 174.963 533.452 196.791 536.914C226.603 541.637 240.037 508.049 224.148 486.376C214.744 473.545 195.198 472.72 184.237 483.757L184.243 483.751Z" fill="#FFF3C4"/>
<path d="M410.233 570.849H365.079C358.576 566.55 347.079 541.882 342.882 539.341C340.237 537.745 332.17 538.271 332.17 540.866V570.855H289.311V443.221H363.551C367.308 443.221 378.24 447.263 382.205 449.086C416.154 464.727 417.824 512.939 385.742 531.694L410.239 570.855L410.233 570.849ZM332.17 504.724H354.367C356.911 504.724 363.432 497.43 364.056 494.369C367.683 476.529 344.232 475.728 332.176 477.049V504.73L332.17 504.724Z" fill="#FFF3C4"/>
<path d="M47.4546 540.089V570.843H3.0614V443.209H78.8354C80.8446 443.209 95.2599 448.668 98.0301 450.067C142.358 472.523 122.807 540.089 72.7126 540.089H47.4546ZM47.4546 477.043V504.724C58.7669 504.629 77.8962 508.013 78.128 491.685C78.3598 475.632 58.8917 476.499 47.4546 477.043Z" fill="#FFF3C4"/>
<path d="M529.633 443.209V477.043H492.897V570.849H448.503V479.351L446.209 477.043H411.767V443.209H529.633Z" fill="#FFF3C4"/>
</g>
<defs>
<clipPath id="clip0_12006_66">
<rect width="1103" height="574" fill="white"/>
</clipPath>
</defs>
</svg>
