<?xml version="1.0" standalone="no"?>
<!DOCTYPE svg PUBLIC "-//W3C//DTD SVG 1.1//EN" "http://www.w3.org/Graphics/SVG/1.1/DTD/svg11.dtd">
<svg xmlns="http://www.w3.org/2000/svg" viewBox="0 0 236.18 53.47" width="236.17999267578125" height="53.470001220703125">
  <defs>
    <style>
      .cls-1 {
        fill: #f0f1df;
      }

      .cls-2 {
        fill: #f26222;
      }
    </style>
  </defs>
  <g id="Layer_1" data-name="Layer 1">
    <path class="cls-2" d="M235.91.79c-.28-.4-.73-.64-1.22-.64l-3.47-.02-3.67-.11-7.11.13-3.65-.08-3.56.08h-3.52s-3.59-.13-3.59-.13c-.04,0-.08,0-.12,0l-3.52.15-3.6-.16-3.57.02h-3.62s-3.54.08-3.54.08l-7.22-.05-3.5.12-7.26-.15-3.53.12-3.62-.15-3.54.06-3.62-.04-3.54.04-3.63-.07-3.62.04-3.56.1-3.54.04-3.64-.06-3.55.06-3.56-.02-3.62-.08h-3.62s-3.52.05-3.52.05l-3.66-.09-3.5.09L105.64,0l-3.65.02-3.52.16h-3.55s-3.62-.12-3.62-.12l-7.21-.07-3.55.05-3.62-.04-7.16.09-7.26-.08-3.54.17-3.58-.09-3.56.03-3.56-.03L44.66,0s-.08,0-.12,0l-3.53.19-7.19-.11-3.52.07-3.65-.1-3.55.03L19.42,0l-3.54.15-3.62-.12-7.13.12L1.53.09c-.47.03-.95.22-1.24.62C0,1.1-.08,1.61.08,2.08l1.14,3.32,1.23,3.27,1.28,3.18,4.83,13.05,1.29,3.16,1.09,3.33,1.26,3.17,1.18,3.31,1.25,3.19,1.18,3.33c.22.62.79,1.02,1.48,1l3.8-.16,3.84.17,7.61-.12h3.83s3.75-.02,3.75-.02l2.8.11,1.24,2.97,1.33,4.07c.2.62.78,1.04,1.43,1.04.01,0,.03,0,.05,0l3.57-.11,10.58-.05,3.65.18,7.08-.07,3.6.03,3.49-.08,3.62.08,3.52-.07,3.59.02,3.52-.06,3.59.03,3.54-.04h3.5s3.56.17,3.56.17c.04,0,.07,0,.1,0l3.49-.09,3.59.08h3.62s3.46-.15,3.46-.15l7.17.11,10.58-.13,3.55.17s.09,0,.14,0l3.5-.15,3.56.1,3.59-.02,3.51-.09,3.51.16s.04,0,.07,0c.02,0,.04,0,.05,0l3.51-.12h3.55s7.17.04,7.17.04l3.51-.09,7.16.06,3.51-.05c.61,0,1.16-.39,1.38-.96l2.7-7.01,2.74-.09,3.81.05,3.83.12s.07,0,.1,0l3.78-.14h3.82s7.68.06,7.68.06c.64.02,1.21-.39,1.43-.99l2.35-6.45,1.33-3.3,1.06-3.21,1.28-3.26,3.47-9.75,1.36-3.13s.03-.07.04-.11l2.23-6.5,1.26-3.27,1.14-3.19c.16-.46.1-.97-.18-1.37Z"/>
  </g>
  <g id="Layer_2" data-name="Layer 2">
    <path class="cls-1" d="M212.28,17.89c1.33,2.52,3.89,3.98,6.56,4.01.32,0,.48.39.24.61-.47.44-1.01.82-1.6,1.13-3.67,1.93-8.21.52-10.14-3.14-1.93-3.67-.52-8.21,3.14-10.14.59-.31,1.21-.54,1.84-.68.31-.07.54.28.36.54-1.48,2.22-1.73,5.15-.4,7.68ZM62.22,8.59c-.02.23-.01.47-.01.7,0,1.98,0,3.96,0,5.93,0,2.06,0,4.13,0,6.19,0,.61.04,1.22.05,1.83.04,1.39-.17,5.83.25,5.83.06,0,2.97-.03,3.79,0,.39.01.41-.53.39-.9-.06-1.39-.1-2.79-.16-4.18-.01-.29.08-.51.29-.69.09-.08.16-.17.25-.25,1.19-1.15,2.38-2.3,3.58-3.45.08-.07.18-.12.28-.19.11.12.19.2.26.29.65.82,2.89,3.49,3.33,4.03,1.17,1.45,2.17,2.9,3.31,4.37.31.4.85.94,1.36.96,1.31.04,2.97,0,4.31,0,.17-.02.37.01.46-.17.13-.25-.1-.35-.23-.5-1.05-1.17-2.24-2.81-3.23-4.02-.91-1.13-3.36-4.35-3.67-4.77-.7-.93-1.57-1.85-2.27-2.78-.12-.15-.29-.29-.25-.54.05-.06.1-.14.16-.19,1.18-1.08,2.29-2.24,3.52-3.25.78-.65,3.58-3.52,4.36-4.14.07-.05.15-.11.18-.19.05-.13.11-.08.1-.21-.02-.17-.18-.22-.33-.22-1.19.02-4.68.01-5.08,0-.44-.01-.51.09-.8.41-1.84,1.99-8.41,7.81-9.51,9.1-.08.09-.16.17-.25.25-.08.07-.16.18-.3.11-.03-.05-.08-.09-.08-.14,0-1.19.08-5.26.09-6.1.02-.84,0-1.69.01-2.53,0-.79-.04-1.06-.86-1.1-.98-.06-1.94,0-2.96.02-.23.1-.34.26-.35.48ZM24.65,24.99l-.57-4.63c-.02-.18.16-.31.32-.23l4.23,1.98c.22.1.43-.18.26-.36l-3.18-3.41c-.12-.13-.05-.34.12-.37l4.58-.89c.24-.05.24-.39,0-.44l-4.58-.89c-.17-.03-.24-.25-.12-.37l3.18-3.41c.17-.18-.04-.46-.26-.36l-4.23,1.98c-.16.07-.34-.06-.32-.23l.57-4.63c.03-.25-.3-.35-.42-.14l-2.26,4.08c-.09.15-.31.15-.39,0l-2.26-4.08c-.12-.22-.45-.11-.42.14l.57,4.63c.02.18-.16.31-.32.23l-4.23-1.98c-.22-.1-.43.18-.26.36l3.18,3.41c.12.13.05.34-.12.37l-4.58.89c-.24.05-.24.39,0,.44l4.58.89c.17.03.24.25.12.37l-3.18,3.41c-.17.18.04.46.26.36l4.23-1.98c.16-.07.34.06.32.23l-.57,4.63c-.03.25.3.35.42.14l2.26-4.08c.09-.15.31-.15.39,0l2.26,4.08c.12.22.45.11.42-.14ZM92.9,29.11c.9,0,1.82,0,2.72,0,.06,0,.28,0,.33,0,.18-.02.19-.02.23-.19.02-.08.03-.29.03-.38-.01-1.1-.02-2.63-.05-3.74-.03-1.25-.09-2.5-.14-3.75-.01-.28.08-.51.23-.73,1.17-1.72,2.02-3.55,3.3-5.2.56-.72,1.08-1.47,1.56-2.24.71-1.16,2.98-4.33,3.05-4.43.19-.27.02-.32-.32-.32h-4.4c-.12,0-4.18,6.39-5.33,8.14-.07.11-.12.26-.41.27-1.82-2.62-3.74-5.55-5.54-8.32-.04-.06-.1-.09-.17-.09-.63,0-3.64,0-4.67,0-.16,0-.26.17-.18.31.05.09.1.17.12.19.81,1.24,1.62,2.48,2.57,3.63.5.61,4.91,6.77,5.7,7.91.2.29.31.63.3.99-.03,1.98.12,4.7.1,6.67,0,.32.03.64.06.95.02.15.04.31.19.33.24,0,.5,0,.71,0ZM121.33,29.11c1.36.02,2.55,0,3.97,0,.3-.01.42-.22.42-.58.02-2.12.01-10.46-.11-12.41-.1-1.57-.08-3.14-.1-4.71-.01-.76.01-1.51,0-2.27-.02-.78-.2-.95-1-.99-.64-.03-1.28-.05-1.92-.05-.26,0-.53.01-.78.06-.44.08-.61.28-.61.71,0,.67.03,1.34.05,2,.02.93.07,1.86.04,2.79-.02.61-.06,1.22,0,1.83.02.19-.04.39-.08.62-1.88.03-9.17.14-11.03,0-.02-.18-.05-.32-.05-.46-.03-.67-.06-1.33-.07-2-.02-1.51-.02-3.21-.03-4.72,0-.15.01-.29,0-.44-.01-.24-.16-.39-.39-.36-.97,0-3.1-.02-3.3,0-.43.03-.55.36-.55.79,0,2.12,0,4.25.02,6.37.02,2.06.07,4.13.11,6.19.02,1.22.03,2.44.04,3.66,0,.96.01,2.05.02,3.01,0,.29-.04.7.25.96.13,0,.33,0,.5,0,.9.03,1.79-.07,2.69,0,.56.04.94-.2.92-.84-.03-.84.01-1.81,0-2.66,0-1.48-.03-2.97-.04-4.45,0-.25.02-.51.04-.81.21-.02.38-.06.54-.06.87,0,1.74-.01,2.62-.02.87,0,1.75.03,2.61-.03,1.51-.1,4.86.01,5.05.06.01.52.01,1.01.05,1.5.1,1.45.13,2.9,0,4.35-.06.72-.02,1.66,0,2.38,0,.16-.02.53.11.56ZM134.91,23.69c1.3,1.04,2.79,1.85,4.54,1.74,1.76-.11,3.38-.55,4.65-1.83,1.29-1.3,2.36-3.29,2.19-5.15-.06-.63-.17-1.25-.35-1.85-.87-2.89-4.22-5.42-7.44-4.75-1.09.23-2.15.53-3.08,1.19-3.48,2.46-3.9,7.94-.5,10.65ZM130.8,25.76c-.18-.2-.37-.39-.52-.61-1.48-2.19-2.29-4.68-2.06-7.31.33-3.76,2.63-7.25,6.11-8.96.46-.22.93-.42,1.41-.59.37-.13.76-.21,1.13-.32.97-.31,2.13-.27,3.13-.21.81.05,1.63.14,2.42.32,2.26.52,4.27,1.67,5.62,3.54,1.51,2.1,2.49,4.43,2.55,6.92.02.75-.05,1.51-.21,2.28-.26,1.28-.96,2.79-1.77,3.84-2.29,2.96-5.4,4.89-9.38,4.8-2-.04-3.72-.58-5.49-1.44-1.07-.52-2.15-1.4-2.95-2.26ZM159.36,23.69c1.3,1.04,2.79,1.85,4.54,1.74,1.76-.11,3.38-.55,4.65-1.83,1.29-1.3,2.36-3.29,2.19-5.15-.06-.63-.17-1.25-.35-1.85-.87-2.89-4.22-5.42-7.44-4.75-1.09.23-2.15.53-3.08,1.19-3.48,2.46-3.9,7.94-.5,10.65ZM155.24,25.76c-.18-.2-.37-.39-.52-.61-1.48-2.19-2.29-4.68-2.06-7.31.33-3.76,2.63-7.25,6.11-8.96.46-.22.93-.42,1.41-.59.37-.13.76-.21,1.13-.32.97-.31,2.13-.27,3.13-.21.81.05,1.63.14,2.42.32,2.26.52,4.27,1.67,5.62,3.54,1.51,2.1,2.49,4.43,2.55,6.92.02.75-.05,1.51-.21,2.28-.26,1.28-.96,2.79-1.77,3.84-2.29,2.96-5.4,4.89-9.38,4.8-2-.04-3.72-.58-5.49-1.44-1.07-.52-2.14-1.4-2.95-2.26ZM69.17,35.01h-2.78c-.11,0-.2.09-.2.2v10.52c0,.11.09.2.2.2h2.78c3.06,0,3.53-1.68,3.53-3.06,0-.89-.33-1.89-1.32-2.48-.11-.06-.12-.21-.04-.3.54-.58.75-1.35.75-2.05,0-1.36-.56-3.03-2.92-3.03ZM69.01,39.82h-1.36c-.11,0-.2-.09-.2-.2v-3.24c0-.11.09-.2.2-.2h1.52c1.53,0,1.65,1.12,1.65,1.86s-.27,1.78-1.81,1.78ZM69.17,44.77h-1.52c-.11,0-.2-.09-.2-.2v-3.38c0-.11.09-.2.2-.2h1.36c2,0,2.42.87,2.42,1.89s-.3,1.83-2.26,1.89ZM78.03,40.48c0,3.04.37,5.54,3.48,5.54s3.53-2.5,3.53-5.54-.42-5.54-3.53-5.54-3.48,2.5-3.48,5.54ZM79.29,40.48c0-2.65.19-4.37,2.22-4.37s2.26,1.72,2.26,4.37-.23,4.37-2.26,4.37-2.22-1.72-2.22-4.37ZM91.66,42.85v-7.63c0-.11-.09-.2-.2-.2h-.87c-.11,0-.2.09-.2.2v7.63c0,2.25,1.22,3.17,3.18,3.17s3.23-.92,3.23-3.17v-7.63c0-.11-.09-.2-.2-.2h-.87c-.11,0-.2.09-.2.2v7.63c0,1.34-.58,2-1.97,2s-1.92-.66-1.92-2ZM103.24,44.5v-9.29c0-.11-.09-.2-.2-.2h-.85c-.11,0-.2.09-.2.2v10.52c0,.11.09.2.2.2h4.45c.11,0,.2-.09.2-.2v-.84c0-.11-.09-.2-.2-.2h-3.21c-.11,0-.2-.09-.2-.2ZM114.72,35.01h-2.84c-.11,0-.2.09-.2.2v10.52c0,.11.09.2.2.2h2.84c3.06,0,3.53-2.43,3.53-5.46s-.47-5.46-3.53-5.46ZM113.14,44.78c-.11,0-.2-.09-.2-.2v-8.2c0-.11.09-.2.2-.2h1.58c1.98,0,2.26,1.67,2.26,4.29s-.28,4.23-2.26,4.29c-.53,0-1.05.01-1.58.02ZM128.41,35.99v-.77c0-.11-.09-.2-.2-.2h-4.58c-.11,0-.2.09-.2.2v10.52c0,.11.09.2.2.2h4.69c.11,0,.2-.09.2-.2v-.77c0-.11-.09-.2-.2-.2h-3.43c-.11,0-.2-.09-.2-.2v-3.05c0-.11.09-.2.2-.2h2.69c.11,0,.2-.09.2-.2v-.77c0-.11-.09-.2-.2-.2h-2.69c-.11,0-.2-.09-.2-.2v-3.57c0-.11.09-.2.2-.2h3.32c.11,0,.2-.09.2-.2ZM136.02,35.01h-2.24c-.11,0-.2.09-.2.2v10.52c0,.11.09.2.2.2h.87c.11,0,.2-.09.2-.2v-3.21c0-.11.09-.2.2-.2h1.18c.07,0,.14.04.17.1l1.84,3.4c.03.06.1.1.17.1h.94c.15,0,.25-.16.17-.29l-1.81-3.36c-.06-.1-.02-.23.09-.28,1.46-.65,1.74-2.11,1.74-3.32,0-1.62-.47-3.67-3.53-3.67ZM136.02,41.15h-.97c-.11,0-.2-.09-.2-.2v-4.56c0-.11.09-.2.2-.2h.97c1.98,0,2.26,1.11,2.26,2.5s-.28,2.4-2.26,2.47ZM146.13,45.74v-10.52c0-.11-.09-.2-.2-.2h-.87c-.11,0-.2.09-.2.2v10.52c0,.11.09.2.2.2h.87c.11,0,.2-.09.2-.2ZM156.55,42.34l-3.67-7.22c-.03-.07-.1-.11-.18-.11h-.91c-.11,0-.2.09-.2.2v10.52c0,.11.09.2.2.2h.87c.11,0,.2-.09.2-.2v-7.01c0-.21.28-.28.38-.09l3.67,7.19c.03.07.1.11.18.11h.9c.11,0,.2-.09.2-.2v-10.52c0-.11-.09-.2-.2-.2h-.85c-.11,0-.2.09-.2.2v7.04c0,.21-.28.28-.38.09ZM170.34,40.47c0-.11-.09-.2-.2-.2h-2.47c-.11,0-.2.09-.2.2v.77c0,.11.09.2.2.2h1.21c.11,0,.2.09.2.2v.89c0,1.53-.84,2.31-1.97,2.31-1.98,0-2.22-1.73-2.22-4.37s.23-4.37,2.22-4.37c1,0,1.84.42,1.84,1.68v.32c0,.11.09.2.2.2h.84c.11,0,.2-.09.2-.2v-.32c0-2.01-1.42-2.86-3.07-2.86-3.07,0-3.48,2.51-3.48,5.54s.41,5.54,3.48,5.54c1.59,0,3.23-.76,3.23-3.48v-2.06ZM205.41,36.48c.31,0,.47-.36.28-.6-1.37-1.64-5.2-6.25-6.14-7.42-.81-1-3.42-4.32-4.43-5.72-.35-.49-.63-.88-.73-1.01-.39-.53-.79-1.05-1.19-1.57-.49-.65-.98-1.29-1.47-1.94-.07-.1-.22-.25-.3-.34-.26-.28.07-.53.07-.53,0,0,.22-.28.29-.36.51-.47,1.02-.95,1.51-1.43.87-.84,1.78-1.71,2.74-2.49.44-.36,1.46-1.36,2.45-2.33.71-.69,1.65-1.57,2.26-2.14.22-.2.07-.56-.22-.56-1.83,0-4.79,0-5.18,0q-.32,0-.61.3l-.06.07c-1.13,1.22-3.69,3.6-6.17,5.9-2.37,2.2-6.04,5.67-6.33,5.85-.16.1-.36-.02-.36-.2,0-1.93.09-7.07.11-7.95.01-.6.01-1.21.01-1.8,0-.41,0-.83,0-1.24,0-.88,0-.9-.67-.94-.84-.05-1.66-.03-2.53,0-.3,0-.6.02-.91.02-.1.06-.13.13-.13.22-.02.22-.01.44-.01.67v7.27s0,2.21,0,2.21c0,1.74,0,3.49,0,5.23,0,.45.02.92.04,1.37,0,.27.02.55.03.82.01.45,0,1.14,0,1.94-.02,1.3-.05,6.84.08,8.37.02.19.17.33.36.33.79,0,2.83-.02,3.75,0,.19,0,.36-.14.37-.34,0-.09,0-.2,0-.34-.03-.8-.06-5.78-.09-6.58-.03-.88-.07-1.76-.1-2.64-.02-.46.01-.61.18-.78.04-.04.74-.79.74-.79,1.38-1.34,4.53-3.96,4.62-4.02.03-.02.07-.04.1-.06l.09-.06c.1-.07.24-.05.33.04l.08.09c.04.05.08.09.12.13.08.09.15.16.21.23.45.56,1.34,1.86,2.29,3,.7.84,1.3,1.57,1.53,1.85.81,1.01,1.56,2.03,2.29,3.02.54.74,4.31,5.56,4.9,6.31.47.61,1.11.92,1.47.93,1.03.03,2.16.02,3.26.01.27,0,.71,0,1.09-.01ZM50.42,19.23l-4.01-.36c-.91-.08-3.81-.33-4.62-.77-.97-.53-1.58-1.28-1.58-2.52,0-.94.4-2.29,2.08-2.99,1.34-.56,2.97-.64,3.15-.65l3.88.06,4.18.22c.3.02.59-.1.8-.31l3.3-3.3c.15-.15.05-.41-.16-.42-3.08-.17-9.55-.51-12.08-.43-4.05.1-9.61,2.47-9.51,7.83-.09,4.22,3.3,6.55,6.64,7.21.23.05,2.91.3,3.14.32,1.12.1,4.48.44,4.48.44.28.03,1.13-.02,2.61.67,1.46.72,2.14,1.85,2.14,3.64,0,1.1-.28,2.68-2.74,3.72-1.61.68-3.08.76-3.24.77-3.46.06-10.27-.2-14.01-.4-.3-.02-.6.1-.81.32l-3.4,3.47c-.15.15-.05.41.16.42,4.68.21,13.92.53,18.12.42,3.58-.07,10.36-1.99,10.36-8.71,0-6.21-5.29-8.58-8.9-8.63Z"/>
  </g>
</svg>